<?xml version="1.0" encoding="UTF-8"?>
<svg version="1.1" xmlns="http://www.w3.org/2000/svg" width="500" height="500">
<path d="M0 0 C2.4375 0.1875 2.4375 0.1875 4.4375 2.1875 C4.29954293 7.1539546 1.58660337 9.64475871 -1.5625 13.1875 C-3.44160989 16.94571978 -3.22134298 21.1051365 -2.5625 25.1875 C-1.28840527 27.24182212 0.13154627 28.75667855 1.83984375 30.4609375 C8.06722809 37.19077584 8.88548571 45.61551133 8.71484375 54.38671875 C8.3464146 59.43575481 7.12185178 62.94286874 4.4375 67.1875 C3.81875 68.19683594 3.81875 68.19683594 3.1875 69.2265625 C-3.75443391 79.44224934 -14.0539986 85.35133287 -25.5625 89.1875 C-26.60388073 91.90629068 -26.60388073 91.90629068 -27.375 95.1875 C-30.67445052 106.56749161 -36.86145927 114.48620043 -47.2109375 120.29296875 C-61.3811262 127.87261162 -75.19409565 130.68772192 -91.3125 129.9375 C-96.38758767 129.87120713 -99.35683344 131.44390708 -103.71484375 133.875 C-113.32287929 138.30339498 -126.15130912 139.34932855 -136.5625 138.1875 C-137.2225 137.5275 -137.8825 136.8675 -138.5625 136.1875 C-138.23118747 132.82605824 -136.81681563 131.0473055 -134.5625 128.625 C-131.1504953 124.94233146 -129.98367423 121.60717444 -130.01171875 116.484375 C-130.97127751 112.48281083 -133.87427467 109.88160091 -136.515625 106.828125 C-140.97035506 101.08118316 -143.35438119 93.85792086 -142.9375 86.5625 C-141.04399623 74.57030944 -135.51185514 65.57611412 -125.75 58.375 C-113.21652844 50.1875 -113.21652844 50.1875 -106.5625 50.1875 C-106.4696875 48.269375 -106.4696875 48.269375 -106.375 46.3125 C-105.36976105 37.32198259 -100.39583858 29.09978495 -93.41015625 23.4453125 C-78.419796 12.40975503 -62.18770713 8.6909093 -43.85742188 9.49023438 C-38.03617057 9.60921529 -35.34291952 8.7401615 -30.5625 5.1875 C-27.96551617 4.32366694 -25.52533962 3.60597416 -22.875 3 C-22.17455566 2.83274414 -21.47411133 2.66548828 -20.75244141 2.49316406 C-13.84829509 0.90829474 -7.0565576 0.37139777 0 0 Z M-30.3125 13.875 C-35.30096044 16.55679633 -39.82342055 16.47843171 -45.32055664 16.3125 C-62.04866988 15.81122445 -78.21907027 19.73480499 -90.78515625 31.21875 C-95.88823641 36.47927546 -97.72624221 41.17140144 -99.5625 48.1875 C-98.82837891 48.16655273 -98.09425781 48.14560547 -97.33789062 48.12402344 C-75.17650811 47.57588655 -54.49694341 48.10302129 -37.27734375 64.23046875 C-32.89695946 69.22949501 -29.91515906 75.00902153 -27.5625 81.1875 C-17.34153736 79.56979368 -8.91774695 73.11178095 -2.5625 65.1875 C1.52997406 58.98242446 2.62490482 52.50810887 1.4375 45.1875 C-0.3792583 39.89184282 -2.96481762 35.66785467 -6.8125 31.625 C-9.67323354 28.45379925 -10.51523325 25.9235921 -10.75 21.67578125 C-10.39800462 17.00450919 -9.02799847 12.61711403 -7.5625 8.1875 C-15.7245394 7.95809357 -23.2780215 9.69233711 -30.3125 13.875 Z M-124.5625 67.1875 C-130.61912322 73.26844701 -134.90636456 79.06133769 -135.62890625 87.8203125 C-135.41796891 95.33960832 -131.69679533 102.14275596 -126.375 107.3125 C-122.6541845 111.16161949 -123.36056146 116.3457696 -123.39453125 121.4140625 C-123.60920273 124.95863816 -124.37644212 127.85171223 -125.5625 131.1875 C-117.64666457 130.59802289 -111.9347172 129.67826314 -105.125 125.5625 C-97.71745835 121.49922095 -91.27470209 121.77781498 -82.96777344 122.02929688 C-68.13317215 122.46978322 -55.39333325 118.54184107 -44.0625 108.6875 C-38.2007855 103.06100678 -35.58150808 99.43661304 -34.5625 91.1875 C-35.20050537 91.20844727 -35.83851074 91.22939453 -36.49584961 91.25097656 C-57.44802644 91.8454713 -77.04500781 90.51472909 -94.0625 76.875 C-99.63786468 71.56284996 -103.60542976 64.62436692 -105.5625 57.1875 C-112.29595066 57.1875 -119.80878711 62.88746095 -124.5625 67.1875 Z M-81.5625 65.1875 C-82.2225 65.8475 -82.8825 66.5075 -83.5625 67.1875 C-83.47678339 69.28041157 -83.47678339 69.28041157 -82.5625 71.1875 C-81.5725 71.5175 -80.5825 71.8475 -79.5625 72.1875 C-78.5725 71.5275 -77.5825 70.8675 -76.5625 70.1875 C-76.8925 68.8675 -77.2225 67.5475 -77.5625 66.1875 C-79.45429203 65.5060177 -79.45429203 65.5060177 -81.5625 65.1875 Z M-69.5625 65.1875 C-69.8925 66.8375 -70.2225 68.4875 -70.5625 70.1875 C-68.5825 71.1775 -68.5825 71.1775 -66.5625 72.1875 C-65.5725 71.1975 -64.5825 70.2075 -63.5625 69.1875 C-64.2225 67.8675 -64.8825 66.5475 -65.5625 65.1875 C-66.8825 65.1875 -68.2025 65.1875 -69.5625 65.1875 Z M-56.5625 65.1875 C-57.2225 65.8475 -57.8825 66.5075 -58.5625 67.1875 C-58.2439823 69.29570797 -58.2439823 69.29570797 -57.5625 71.1875 C-55.72549211 71.95992269 -55.72549211 71.95992269 -53.5625 72.1875 C-51.79059091 70.83305699 -51.79059091 70.83305699 -50.5625 69.1875 C-51.2225 67.8675 -51.8825 66.5475 -52.5625 65.1875 C-53.8825 65.1875 -55.2025 65.1875 -56.5625 65.1875 Z " fill="#264152" transform="translate(316.5625,124.8125)"/>
<path d="M0 0 C3.125 0.375 3.125 0.375 6 1 C5.67 2.98 5.34 4.96 5 7 C5.9075 6.62875 6.815 6.2575 7.75 5.875 C11 5 11 5 13.25 5.75 C15 7 15 7 17 9 C16.6875 11.875 16.6875 11.875 16 15 C15.814375 16.1446875 15.814375 16.1446875 15.625 17.3125 C15.41875 17.869375 15.2125 18.42625 15 19 C11.25105057 20.24964981 8.84864723 19.75598428 5 19 C4.01 18.34 3.02 17.68 2 17 C2.495 18.485 2.495 18.485 3 20 C0.625 20.125 0.625 20.125 -2 20 C-2.66 19.34 -3.32 18.68 -4 18 C-4.763125 18.33 -5.52625 18.66 -6.3125 19 C-9 20 -9 20 -12 20 C-12.66 21.65 -13.32 23.3 -14 25 C-14.99 24.67 -15.98 24.34 -17 24 C-17.495 21.03 -17.495 21.03 -18 18 C-18.495 18.350625 -18.99 18.70125 -19.5 19.0625 C-22.51305678 20.19239629 -24.65716563 19.73582728 -27.77734375 19.2109375 C-30.2439641 18.97684699 -32.31164503 19.27775996 -34.75 19.6875 C-37.01171875 20.0078125 -37.01171875 20.0078125 -39 20 C-41.5625 18.0625 -41.5625 18.0625 -43 16 C-43.391875 16.66 -43.78375 17.32 -44.1875 18 C-46 20 -46 20 -48.6875 20.25 C-49.450625 20.1675 -50.21375 20.085 -51 20 C-51.33 21.65 -51.66 23.3 -52 25 C-53.32 24.67 -54.64 24.34 -56 24 C-55.34 18.39 -54.68 12.78 -54 7 C-48 5 -48 5 -45.1875 5.75 C-43 7 -43 7 -42 9 C-41.608125 8.525625 -41.21625 8.05125 -40.8125 7.5625 C-38.51731158 5.5838893 -37.00758722 5.22006736 -34 5 C-31.29362471 5.97730219 -30.29743778 6.40512445 -29 9 C-28.5875 8.525625 -28.175 8.05125 -27.75 7.5625 C-25.71723545 5.74753165 -24.72163054 5.16009591 -22 5 C-19.25 6.4375 -19.25 6.4375 -17 8 C-16.34 7.34 -15.68 6.68 -15 6 C-11.16600177 5.23320035 -8.74023976 4.75325341 -5 6 C-3.8125 8.0625 -3.8125 8.0625 -3 10 C-2.814375 8.081875 -2.814375 8.081875 -2.625 6.125 C-2.25 2.25 -2.25 2.25 0 0 Z M-36 9 C-36.33 9.66 -36.66 10.32 -37 11 C-36.01 10.67 -35.02 10.34 -34 10 C-34.66 9.67 -35.32 9.34 -36 9 Z M10 9 C9.67 9.66 9.34 10.32 9 11 C9.66 11 10.32 11 11 11 C10.67 10.34 10.34 9.68 10 9 Z M-49 10 C-49 10.66 -49 11.32 -49 12 C-48.34 12 -47.68 12 -47 12 C-47 11.34 -47 10.68 -47 10 C-47.66 10 -48.32 10 -49 10 Z M-24 10 C-23.67 11.32 -23.34 12.64 -23 14 C-23.99 14.495 -23.99 14.495 -25 15 C-24.01 15 -23.02 15 -22 15 C-22 13.35 -22 11.7 -22 10 C-22.66 10 -23.32 10 -24 10 Z M-11 10 C-11 10.99 -11 11.98 -11 13 C-10.34 13 -9.68 13 -9 13 C-9 12.01 -9 11.02 -9 10 C-9.66 10 -10.32 10 -11 10 Z M-11 14 C-10.67 14.66 -10.34 15.32 -10 16 C-9.67 15.34 -9.34 14.68 -9 14 C-9.66 14 -10.32 14 -11 14 Z M-31 16 C-30 18 -30 18 -30 18 Z " fill="#213B4C" transform="translate(335,346)"/>
<path d="M0 0 C4.17853445 2.78568964 5.03813478 6.19067388 6 11 C6.3652746 16.75307503 5.99261396 21.56559828 4 27 C0.64878101 30.19163714 -1.84658998 31.21788362 -6.375 31.25 C-7.57125 31.1675 -8.7675 31.085 -10 31 C-10.04898437 31.69867188 -10.09796875 32.39734375 -10.1484375 33.1171875 C-10.22320312 34.02726562 -10.29796875 34.93734375 -10.375 35.875 C-10.44460938 36.77992188 -10.51421875 37.68484375 -10.5859375 38.6171875 C-11 41 -11 41 -13 43 C-15.5 43.25 -15.5 43.25 -18 43 C-20.84655817 40.15344183 -20.33437183 37.32306126 -20.37890625 33.5078125 C-20.39590073 32.76546356 -20.4128952 32.02311462 -20.43040466 31.25827026 C-20.48360766 28.88060054 -20.52383615 26.50294712 -20.5625 24.125 C-20.60650898 21.75428685 -20.65333526 19.38370532 -20.70530701 17.01315308 C-20.73710636 15.53744362 -20.7640447 14.06161941 -20.78553772 12.58572388 C-20.85275139 9.22775023 -21.15777309 6.24128275 -22 3 C-21 1.25 -21 1.25 -19 0 C-15.5 -0.125 -15.5 -0.125 -12 0 C-7.82047377 -1.39317541 -4.2641859 -0.98107176 0 0 Z M-8 7 C-8.99 7.33 -9.98 7.66 -11 8 C-11 12.62 -11 17.24 -11 22 C-6.39467611 23.45314664 -6.39467611 23.45314664 -4 22 C-4 17.71 -4 13.42 -4 9 C-5.32 8.34 -6.64 7.68 -8 7 Z " fill="#274050" transform="translate(351,293)"/>
<path d="M0 0 C2.37890625 1.05078125 2.37890625 1.05078125 3.6015625 3.1328125 C3.87871094 4.03386719 4.15585938 4.93492187 4.44140625 5.86328125 C4.91513672 7.33667969 4.91513672 7.33667969 5.3984375 8.83984375 C5.72199219 9.89945312 6.04554688 10.9590625 6.37890625 12.05078125 C7.12496617 14.28126968 7.87484252 16.51048595 8.62890625 18.73828125 C9.21376728 20.50861061 9.7976733 22.27925741 10.37890625 24.05078125 C13.62168078 19.25711456 14.91976806 14.27685327 16.39648438 8.7578125 C17.30956654 5.59600695 18.03971246 3.38605373 20.40625 1.046875 C22.37890625 0.05078125 22.37890625 0.05078125 24.50390625 0.23828125 C26.37890625 1.05078125 26.37890625 1.05078125 28.37890625 3.05078125 C27.22254609 10.59503444 24.60752564 17.7609351 22.12036133 24.95507812 C21.43670523 26.93942622 20.76792375 28.92840882 20.09960938 30.91796875 C19.66365211 32.18910825 19.22683411 33.45995295 18.7890625 34.73046875 C18.39855713 35.87241699 18.00805176 37.01436523 17.60571289 38.19091797 C16.45800087 40.86640029 15.68145699 42.31910777 13.37890625 44.05078125 C10.87890625 44.48828125 10.87890625 44.48828125 8.37890625 44.05078125 C5.02168282 40.60958552 3.90023099 36.25341242 2.4609375 31.78515625 C2.1988298 30.99175842 1.93672211 30.1983606 1.66667175 29.38092041 C0.83448862 26.85647462 0.01282684 24.328747 -0.80859375 21.80078125 C-1.37235532 20.08440811 -1.9368008 18.36825945 -2.50195312 16.65234375 C-3.88293771 12.45438255 -5.25449903 8.25344781 -6.62109375 4.05078125 C-2.94873047 0.05712891 -2.94873047 0.05712891 0 0 Z " fill="#274051" transform="translate(147.62109375,279.94921875)"/>
<path d="M0 0 C3.36175887 2.34541316 4.18562668 4.06792577 5.6875 7.875 C6.0223384 10.68267687 5.97451674 13.42780737 5.875 16.25 C5.85469727 17.35408203 5.85469727 17.35408203 5.83398438 18.48046875 C5.79894869 20.27896743 5.74515288 22.07708422 5.6875 23.875 C6.6775 24.205 7.6675 24.535 8.6875 24.875 C7.8125 29.75 7.8125 29.75 6.6875 30.875 C4.41185291 30.69367354 2.17351712 30.35508063 -0.0859375 30.03125 C-2.48533708 29.72046629 -2.48533708 29.72046629 -5.3125 30.875 C-10.61702423 31.21722737 -14.03728403 31.39576609 -18.3125 27.875 C-20.44072731 25.26308467 -20.42811921 23.1173439 -20.1875 19.875 C-19.74421756 17.28757966 -19.24671299 15.75837757 -17.9375 13.4375 C-13.71591962 10.92465453 -9.14473025 11.04162863 -4.3125 10.875 C-4.3125 9.885 -4.3125 8.895 -4.3125 7.875 C-4.98796875 7.99359375 -5.6634375 8.1121875 -6.359375 8.234375 C-13.73617067 9.30038593 -13.73617067 9.30038593 -16.9375 6.9375 C-17.618125 5.9165625 -17.618125 5.9165625 -18.3125 4.875 C-17.33953346 2.22145489 -16.65457577 1.07622104 -14.1875 -0.375 C-9.05302071 -1.71442938 -4.95889618 -1.68415342 0 0 Z M-9.3125 17.875 C-9.6425 19.525 -9.9725 21.175 -10.3125 22.875 C-8.6625 22.875 -7.0125 22.875 -5.3125 22.875 C-4.6525 21.555 -3.9925 20.235 -3.3125 18.875 C-6.2825 18.38 -6.2825 18.38 -9.3125 17.875 Z " fill="#264051" transform="translate(318.3125,293.125)"/>
<path d="M0 0 C3.36175887 2.34541316 4.18562668 4.06792577 5.6875 7.875 C6.0223384 10.68267687 5.97451674 13.42780737 5.875 16.25 C5.85469727 17.35408203 5.85469727 17.35408203 5.83398438 18.48046875 C5.79894869 20.27896743 5.74515288 22.07708422 5.6875 23.875 C6.6775 24.205 7.6675 24.535 8.6875 24.875 C7.8125 29.75 7.8125 29.75 6.6875 30.875 C4.37933286 30.69432155 2.10856834 30.35502249 -0.18359375 30.03125 C-2.36596605 29.68861475 -2.36596605 29.68861475 -4.3125 30.875 C-8.60069956 31.31308718 -12.25672448 31.32426618 -16.25 29.625 C-18.55152075 27.67219452 -19.52419467 26.79172972 -20.3125 23.875 C-20.37695891 19.96717858 -19.86624151 16.85663267 -17.9375 13.4375 C-13.71591962 10.92465453 -9.14473025 11.04162863 -4.3125 10.875 C-4.3125 9.885 -4.3125 8.895 -4.3125 7.875 C-5.08335937 7.97039062 -5.85421875 8.06578125 -6.6484375 8.1640625 C-7.65132812 8.27492188 -8.65421875 8.38578125 -9.6875 8.5 C-10.68523437 8.61601562 -11.68296875 8.73203125 -12.7109375 8.8515625 C-13.56945312 8.85929687 -14.42796875 8.86703125 -15.3125 8.875 C-17.3125 6.875 -17.3125 6.875 -17.4375 4.25 C-17.39625 3.46625 -17.355 2.6825 -17.3125 1.875 C-11.28536087 -1.74128348 -6.57372362 -2.23258538 0 0 Z M-9.3125 17.875 C-10.3025 19.36 -10.3025 19.36 -11.3125 20.875 C-10.9825 21.535 -10.6525 22.195 -10.3125 22.875 C-6.8475 22.38 -6.8475 22.38 -3.3125 21.875 C-3.3125 20.885 -3.3125 19.895 -3.3125 18.875 C-6.2825 18.38 -6.2825 18.38 -9.3125 17.875 Z " fill="#264051" transform="translate(197.3125,293.125)"/>
<path d="M0 0 C3.19414562 2.10523234 4.16660461 3.34103256 5.75 6.8125 C6.09942532 9.76244224 6.03443101 12.65990536 5.9375 15.625 C5.91719727 16.80739258 5.91719727 16.80739258 5.89648438 18.01367188 C5.86133456 19.94691169 5.80753361 21.87979682 5.75 23.8125 C6.74 24.1425 7.73 24.4725 8.75 24.8125 C8.75 26.4625 8.75 28.1125 8.75 29.8125 C4.72963329 30.5083327 1.67129754 30.97436594 -2.25 29.8125 C-2.91 30.1425 -3.57 30.4725 -4.25 30.8125 C-6.2734375 30.98046875 -6.2734375 30.98046875 -8.625 31 C-9.39585937 31.01417969 -10.16671875 31.02835937 -10.9609375 31.04296875 C-13.53748088 30.78355568 -15.07425673 30.20590154 -17.25 28.8125 C-20.0816726 24.56499109 -20.00157476 20.79576745 -19.25 15.8125 C-17.4375 13.25 -17.4375 13.25 -14.25 11.8125 C-10.58543123 11.22061038 -6.95786677 10.94237274 -3.25 10.8125 C-3.91 9.8225 -4.57 8.8325 -5.25 7.8125 C-6.17232422 7.95558594 -6.17232422 7.95558594 -7.11328125 8.1015625 C-7.92152344 8.21242188 -8.72976563 8.32328125 -9.5625 8.4375 C-10.36300781 8.55351562 -11.16351563 8.66953125 -11.98828125 8.7890625 C-14.25 8.8125 -14.25 8.8125 -17.25 6.8125 C-16.92 4.8325 -16.59 2.8525 -16.25 0.8125 C-10.51057742 -1.42727467 -5.87678012 -2.14728504 0 0 Z M-10.25 18.8125 C-10.25 20.1325 -10.25 21.4525 -10.25 22.8125 C-8.27 22.8125 -6.29 22.8125 -4.25 22.8125 C-3.92 21.4925 -3.59 20.1725 -3.25 18.8125 C-6.83327753 17.81032936 -6.83327753 17.81032936 -10.25 18.8125 Z " fill="#264152" transform="translate(271.25,293.1875)"/>
<path d="M0 0 C0.7425 0.391875 1.485 0.78375 2.25 1.1875 C2.25 4.1575 2.25 7.1275 2.25 10.1875 C3.9515625 10.1565625 3.9515625 10.1565625 5.6875 10.125 C9.25 10.1875 9.25 10.1875 10.25 11.1875 C10.29080783 13.18708364 10.29254356 15.18795254 10.25 17.1875 C8.25 18.1875 8.25 18.1875 2.25 18.1875 C2.58 22.1475 2.91 26.1075 3.25 30.1875 C5.89 31.1775 8.53 32.1675 11.25 33.1875 C11.4375 35.5625 11.4375 35.5625 11.25 38.1875 C7.50816125 40.68205917 5.68756964 40.56356522 1.25 40.1875 C-4.06654749 38.18125567 -4.06654749 38.18125567 -5.89697266 35.51977539 C-7.70393601 30.57932864 -7.12178586 25.02027085 -7.12060547 19.8059082 C-7.12499339 17.62828193 -7.16137883 15.45266054 -7.19921875 13.27539062 C-7.20508472 11.89063191 -7.20905558 10.50586361 -7.2109375 9.12109375 C-7.21915527 7.86353271 -7.22737305 6.60597168 -7.23583984 5.31030273 C-6.75 2.1875 -6.75 2.1875 -4.89306641 0.20336914 C-2.75 -0.8125 -2.75 -0.8125 0 0 Z " fill="#264051" transform="translate(238.75,283.8125)"/>
<path d="M0 0 C0 1.32 0 2.64 0 4 C0.99 4.33 1.98 4.66 3 5 C3 5.99 3 6.98 3 8 C1.68 8.33 0.36 8.66 -1 9 C0.32 9.66 1.64 10.32 3 11 C3.66 8.69 4.32 6.38 5 4 C6.32 4 7.64 4 9 4 C8.67 8.29 8.34 12.58 8 17 C6.68 17.33 5.36 17.66 4 18 C3.67 16.35 3.34 14.7 3 13 C2.67 14.32 2.34 15.64 2 17 C-0.3125 17.6875 -0.3125 17.6875 -3 18 C-5.66084038 16.32465606 -6.02757725 14.90807585 -6.9375 11.875 C-7.288125 10.92625 -7.63875 9.9775 -8 9 C-10.03243548 8.03122943 -10.03243548 8.03122943 -12 8 C-12 9.65 -12 11.3 -12 13 C-9.525 13.495 -9.525 13.495 -7 14 C-7.33 14.99 -7.66 15.98 -8 17 C-10.75 17.6875 -10.75 17.6875 -14 18 C-16.375 16.5625 -16.375 16.5625 -18 15 C-18.53625 15.515625 -19.0725 16.03125 -19.625 16.5625 C-22 18 -22 18 -25.125 17.75 C-28 17 -28 17 -30 16 C-30.3184 7.7216 -30.3184 7.7216 -28 5 C-24.5625 3.625 -24.5625 3.625 -21 3 C-18 5 -18 5 -17 8 C-16.608125 7.360625 -16.21625 6.72125 -15.8125 6.0625 C-13.59562067 3.53984421 -12.29800905 3.253693 -9 3 C-8.34 3.33 -7.68 3.66 -7 4 C-6.67 3.01 -6.34 2.02 -6 1 C-3 0 -3 0 0 0 Z M-7 4 C-6.34 5.32 -5.68 6.64 -5 8 C-5 6.68 -5 5.36 -5 4 C-5.66 4 -6.32 4 -7 4 Z " fill="#213B4D" transform="translate(235,348)"/>
<path d="M0 0 C2.5 0.25 2.5 0.25 4.5 2.25 C4.73352653 4.84024386 4.84939316 7.33168524 4.87890625 9.92578125 C4.89590073 10.68795456 4.9128952 11.45012787 4.93040466 12.23539734 C4.98361211 14.67768001 5.02382845 17.11994731 5.0625 19.5625 C5.10654733 21.99424945 5.15342366 24.4258725 5.20530701 26.85746765 C5.23703659 28.37105339 5.26399549 29.88474879 5.28553772 31.39851379 C5.34399394 34.4053978 5.48613355 37.18764593 6.14038086 40.12963867 C6.25905518 40.82935791 6.37772949 41.52907715 6.5 42.25 C4.5 44.25 4.5 44.25 1.5625 44.625 C-1.5 44.25 -1.5 44.25 -3.16870117 42.76611328 C-5.09200536 39.13112833 -4.90922857 35.62975254 -4.86328125 31.6171875 C-4.86377975 30.78414093 -4.86427826 29.95109436 -4.86479187 29.09280396 C-4.86245563 27.33609627 -4.85275363 25.57938497 -4.83618164 23.82275391 C-4.81252306 21.12762725 -4.81563203 18.43348581 -4.82226562 15.73828125 C-4.81669087 14.03124408 -4.80958226 12.32421108 -4.80078125 10.6171875 C-4.80169266 9.80885468 -4.80260406 9.00052185 -4.80354309 8.16769409 C-4.70541987 0.47054199 -4.70541987 0.47054199 0 0 Z " fill="#264151" transform="translate(288.5,279.75)"/>
<path d="M0 0 C0.6875 2.3125 0.6875 2.3125 1 5 C0 6.8125 0 6.8125 -2 8 C-4.33284443 8.04776298 -6.66723065 8.05129933 -9 8 C-8.98952637 8.62567871 -8.97905273 9.25135742 -8.96826172 9.89599609 C-8.92676809 12.7222901 -8.90069527 15.54852011 -8.875 18.375 C-8.85824219 19.35984375 -8.84148437 20.3446875 -8.82421875 21.359375 C-8.81777344 22.30039062 -8.81132812 23.24140625 -8.8046875 24.2109375 C-8.79421387 25.08024902 -8.78374023 25.94956055 -8.77294922 26.84521484 C-9 29 -9 29 -11 31 C-13.5 31.25 -13.5 31.25 -16 31 C-18.50771893 28.49228107 -18.28141808 27.56867394 -18.37890625 24.09765625 C-18.41306641 23.12505859 -18.44722656 22.15246094 -18.48242188 21.15039062 C-18.50884766 20.13138672 -18.53527344 19.11238281 -18.5625 18.0625 C-18.62245806 16.05326703 -18.68609808 14.04413962 -18.75390625 12.03515625 C-18.77783447 11.1419165 -18.8017627 10.24867676 -18.82641602 9.32836914 C-18.9161271 6.84358144 -18.9161271 6.84358144 -20 4 C-18.5625 1.8125 -18.5625 1.8125 -17 0 C-16.113125 0.20625 -15.22625 0.4125 -14.3125 0.625 C-11.06995534 1.25682929 -11.06995534 1.25682929 -8.5 0 C-5.31703726 -1.2731851 -3.2854186 -0.76405084 0 0 Z " fill="#274051" transform="translate(228,293)"/>
<path d="M0 0 C0.38095238 10.70899471 0.38095238 10.70899471 -2 16 C-4 18 -4 18 -7.625 18.125 C-8.73875 18.08375 -9.8525 18.0425 -11 18 C-11.33 16.68 -11.66 15.36 -12 14 C-11.01 13.67 -10.02 13.34 -9 13 C-9.99 12.34 -10.98 11.68 -12 11 C-12.3984375 8.94140625 -12.3984375 8.94140625 -12.375 6.5625 C-12.38273437 5.78003906 -12.39046875 4.99757813 -12.3984375 4.19140625 C-11.90886125 1.49873688 -11.14919537 0.64973447 -9 -1 C-5.23375329 -2.25541557 -3.62811066 -1.37061958 0 0 Z M-7 3 C-6.67 3.99 -6.34 4.98 -6 6 C-5.34 5.67 -4.68 5.34 -4 5 C-4 4.34 -4 3.68 -4 3 C-4.99 3 -5.98 3 -7 3 Z " fill="#27404F" transform="translate(271,353)"/>
<path d="M0 0 C0.99 0.66 1.98 1.32 3 2 C3 2.66 3 3.32 3 4 C3.66 4.33 4.32 4.66 5 5 C5 5.33 5 5.66 5 6 C6.093125 5.79375 7.18625 5.5875 8.3125 5.375 C12 5 12 5 15 7 C15.29296875 10.0390625 15.29296875 10.0390625 15.1875 13.625 C15.16042969 14.81351562 15.13335937 16.00203125 15.10546875 17.2265625 C15.07066406 18.14179688 15.03585937 19.05703125 15 20 C14.236875 19.835 13.47375 19.67 12.6875 19.5 C9.96403764 18.90854604 9.96403764 18.90854604 7 19 C5.68 19 4.36 19 3 19 C3.01160156 18.31292969 3.02320313 17.62585938 3.03515625 16.91796875 C3.04417969 16.01691406 3.05320313 15.11585938 3.0625 14.1875 C3.07410156 13.29417969 3.08570313 12.40085937 3.09765625 11.48046875 C3.11009967 8.86586209 3.11009967 8.86586209 2 6 C1.34 5.835 0.68 5.67 0 5.5 C-0.66 5.335 -1.32 5.17 -2 5 C-2.33 4.01 -2.66 3.02 -3 2 C-2.01 1.34 -1.02 0.68 0 0 Z M9 10 C8.67 10.66 8.34 11.32 8 12 C8.99 12.33 9.98 12.66 11 13 C11 12.01 11 11.02 11 10 C10.34 10 9.68 10 9 10 Z " fill="#21394A" transform="translate(242,346)"/>
<path d="M0 0 C0.33 0.66 0.66 1.32 1 2 C1.66 2.309375 2.32 2.61875 3 2.9375 C5 4 5 4 6 7 C5.01 7.66 4.02 8.32 3 9 C2.34 8.34 1.68 7.68 1 7 C-0.32 7 -1.64 7 -3 7 C-2.67 7.66 -2.34 8.32 -2 9 C-1.960008 10.99960012 -1.95653201 13.00047242 -2 15 C-0.35 15.33 1.3 15.66 3 16 C2.4375 17.9375 2.4375 17.9375 1 20 C-2.4375 20.9375 -2.4375 20.9375 -6 21 C-8.20202666 19.60538312 -8.79510491 18.61599871 -9.609375 16.16796875 C-10.31192317 12.26882642 -9.38252769 8.6687564 -8 5 C-5.34617151 2.27812462 -3.58892887 1.19630962 0 0 Z " fill="#1E3944" transform="translate(161,345)"/>
<path d="M0 0 C0 3.96 0 7.92 0 12 C-1.32 12.33 -2.64 12.66 -4 13 C-5.80411967 10.24075815 -6.0127245 9.11027897 -5.625 5.75 C-5.315625 4.38875 -5.315625 4.38875 -5 3 C-5.66 3 -6.32 3 -7 3 C-6.95875 4.093125 -6.9175 5.18625 -6.875 6.3125 C-7 10 -7 10 -9 13 C-10.32 12.34 -11.64 11.68 -13 11 C-13.1234711 6.55504028 -12.39748841 3.19246523 -11 -1 C-6.13160991 -2.13218374 -4.94554184 -1.97821674 0 0 Z " fill="#233C50" transform="translate(204,353)"/>
<path d="M0 0 C2.125 1.4375 2.125 1.4375 2.9375 3.5625 C3.17492541 7.20302298 3.1868383 10.78904037 3.125 14.4375 C1.475 14.4375 -0.175 14.4375 -1.875 14.4375 C-3.24994222 12.17288929 -3.95491957 10.98095306 -3.5625 8.3125 C-2.875 6.4375 -2.875 6.4375 -1.875 4.4375 C-2.865 4.9325 -2.865 4.9325 -3.875 5.4375 C-4.56229254 7.55596285 -4.56229254 7.55596285 -5 10 C-5.16757813 10.82628906 -5.33515625 11.65257812 -5.5078125 12.50390625 C-5.62898437 13.14199219 -5.75015625 13.78007812 -5.875 14.4375 C-7.195 14.1075 -8.515 13.7775 -9.875 13.4375 C-9.875 9.4775 -9.875 5.5175 -9.875 1.4375 C-3.73280886 -0.73033217 -3.73280886 -0.73033217 0 0 Z " fill="#233F52" transform="translate(187.875,351.5625)"/>
<path d="M0 0 C1.60808262 3.21616524 1.60375416 6.52155272 1 10 C-1.125 12.5625 -1.125 12.5625 -4 14 C-7.1875 14.0625 -7.1875 14.0625 -10 13 C-11.5625 10.875 -11.5625 10.875 -12 8 C-10.90927785 4.42485518 -10.0886633 1.87093064 -7.125 -0.5 C-4.41745183 -1.13707016 -2.63375377 -0.85419041 0 0 Z M-6 4 C-5.67 4.99 -5.34 5.98 -5 7 C-4.34 6.67 -3.68 6.34 -3 6 C-3 5.34 -3 4.68 -3 4 C-3.99 4 -4.98 4 -6 4 Z M-7 7 C-7 7.66 -7 8.32 -7 9 C-6.34 8.67 -5.68 8.34 -5 8 C-5.66 7.67 -6.32 7.34 -7 7 Z " fill="#243D4D" transform="translate(176,352)"/>
<path d="M0 0 C0 3.3 0 6.6 0 10 C-0.99 9.67 -1.98 9.34 -3 9 C-3.99 9.495 -3.99 9.495 -5 10 C-7.125 9.5625 -7.125 9.5625 -9 9 C-10.125 5.25 -10.125 5.25 -9 3 C-9.66 3 -10.32 3 -11 3 C-10.1875 1.0625 -10.1875 1.0625 -9 -1 C-5.23375329 -2.25541557 -3.62811066 -1.37061958 0 0 Z M-7 3 C-6.67 3.99 -6.34 4.98 -6 6 C-5.34 5.67 -4.68 5.34 -4 5 C-4 4.34 -4 3.68 -4 3 C-4.99 3 -5.98 3 -7 3 Z " fill="#223A49" transform="translate(271,353)"/>
<path d="M0 0 C0.33 0 0.66 0 1 0 C1 1.98 1 3.96 1 6 C2.65 6.33 4.3 6.66 6 7 C5.4375 8.9375 5.4375 8.9375 4 11 C0.5625 11.9375 0.5625 11.9375 -3 12 C-5.36066896 10.50490966 -5.85530342 9.46039822 -6.6875 6.8125 C-6.790625 6.214375 -6.89375 5.61625 -7 5 C-3.535 4.505 -3.535 4.505 0 4 C0 2.68 0 1.36 0 0 Z " fill="#213D49" transform="translate(158,354)"/>
<path d="M0 0 C1.32 0 2.64 0 4 0 C3.67 4.29 3.34 8.58 3 13 C1.68 13.33 0.36 13.66 -1 14 C-2.29914639 9.38081284 -1.77764428 5.66586566 -1 1 C-0.67 0.67 -0.34 0.34 0 0 Z " fill="#273F50" transform="translate(240,352)"/>
<path d="M0 0 C5.25431335 0.41210301 8.2354518 1.2354518 12 5 C12.90238747 7.70716242 13.11851302 9.23776768 13.09765625 12.01171875 C13.09443359 12.76904297 13.09121094 13.52636719 13.08789062 14.30664062 C13.07951172 15.09232422 13.07113281 15.87800781 13.0625 16.6875 C13.05798828 17.48478516 13.05347656 18.28207031 13.04882812 19.10351562 C13.0370585 21.06904257 13.01912348 23.03453085 13 25 C13.99 25.33 14.98 25.66 16 26 C15.67 26.99 15.34 27.98 15 29 C14.01 28.67 13.02 28.34 12 28 C12 21.73 12 15.46 12 9 C11.01 9 10.02 9 9 9 C8.67 7.02 8.34 5.04 8 3 C7.236875 2.87625 6.47375 2.7525 5.6875 2.625 C3 2 3 2 0 0 Z " fill="#2F404A" transform="translate(264,292)"/>
<path d="M0 0 C0.99 0 1.98 0 3 0 C3.33 0.99 3.66 1.98 4 3 C4.66 3.33 5.32 3.66 6 4 C6 4.66 6 5.32 6 6 C6.66 6 7.32 6 8 6 C8 6.66 8 7.32 8 8 C8.66 8.33 9.32 8.66 10 9 C9.01 9.66 8.02 10.32 7 11 C3.3125 10.125 3.3125 10.125 0 9 C-1.125 2.25 -1.125 2.25 0 0 Z " fill="#1B4352" transform="translate(341,355)"/>
<path d="M0 0 C0 1.32 0 2.64 0 4 C0.99 4.33 1.98 4.66 3 5 C3 5.99 3 6.98 3 8 C1.68 8.33 0.36 8.66 -1 9 C-1.33 8.34 -1.66 7.68 -2 7 C-2.99 7.33 -3.98 7.66 -5 8 C-5 6.68 -5 5.36 -5 4 C-5.66 4 -6.32 4 -7 4 C-6.67 3.01 -6.34 2.02 -6 1 C-3 0 -3 0 0 0 Z " fill="#233D4D" transform="translate(235,348)"/>
<path d="M0 0 C0.66 0.33 1.32 0.66 2 1 C1.77139942 2.46184058 1.51629608 3.91955419 1.25 5.375 C1.04117188 6.59316406 1.04117188 6.59316406 0.828125 7.8359375 C0 10 0 10 -2.078125 11.2890625 C-3.02945313 11.64097656 -3.02945313 11.64097656 -4 12 C-4.33 11.67 -4.66 11.34 -5 11 C-4.91062197 9.47480724 -4.75462854 7.95318071 -4.5625 6.4375 C-4.46066406 5.61121094 -4.35882813 4.78492188 -4.25390625 3.93359375 C-4.17011719 3.29550781 -4.08632812 2.65742188 -4 2 C-3.01 2 -2.02 2 -1 2 C-0.67 1.34 -0.34 0.68 0 0 Z " fill="#26424F" transform="translate(157,348)"/>
<path d="M0 0 C0.99 0.33 1.98 0.66 3 1 C3 1.99 3 2.98 3 4 C1.35 4.66 -0.3 5.32 -2 6 C-2 6.66 -2 7.32 -2 8 C-3.875 8.625 -3.875 8.625 -6 9 C-6.66 8.34 -7.32 7.68 -8 7 C-8.99 6.67 -9.98 6.34 -11 6 C-11 5.34 -11 4.68 -11 4 C-9.02 4 -7.04 4 -5 4 C-4.67 3.34 -4.34 2.68 -4 2 C-3.01 3.485 -3.01 3.485 -2 5 C-2 4.01 -2 3.02 -2 2 C-1.34 2 -0.68 2 0 2 C0 1.34 0 0.68 0 0 Z M-5 6 C-4 8 -4 8 -4 8 Z " fill="#133A47" transform="translate(309,356)"/>
<path d="M0 0 C0.66 0.99 1.32 1.98 2 3 C2.66 2.67 3.32 2.34 4 2 C4.125 8.75 4.125 8.75 3 11 C1.68 10.67 0.36 10.34 -1 10 C-1.125 3.375 -1.125 3.375 0 0 Z " fill="#2A4352" transform="translate(179,355)"/>
<path d="M0 0 C0.598125 0.226875 1.19625 0.45375 1.8125 0.6875 C1.8125 2.0075 1.8125 3.3275 1.8125 4.6875 C0.8225 4.6875 -0.1675 4.6875 -1.1875 4.6875 C-1.1875 5.3475 -1.1875 6.0075 -1.1875 6.6875 C-2.8375 6.3575 -4.4875 6.0275 -6.1875 5.6875 C-5.02477055 2.19931165 -4.06615469 -0.58087924 0 0 Z " fill="#214154" transform="translate(226.1875,292.3125)"/>
<path d="M0 0 C0.33 0.66 0.66 1.32 1 2 C2.32 1.67 3.64 1.34 5 1 C4.625 3.9375 4.625 3.9375 4 7 C3.01 7.495 3.01 7.495 2 8 C1.34 7.67 0.68 7.34 0 7 C0 6.34 0 5.68 0 5 C-0.99 4.67 -1.98 4.34 -3 4 C-2.34 3.67 -1.68 3.34 -1 3 C-0.67 2.01 -0.34 1.02 0 0 Z " fill="#163450" transform="translate(347,354)"/>
<path d="M0 0 C2.0625 0.4375 2.0625 0.4375 4 1 C3.67 2.98 3.34 4.96 3 7 C1.68 7 0.36 7 -1 7 C-1.04254356 5.00045254 -1.04080783 2.99958364 -1 1 C-0.67 0.67 -0.34 0.34 0 0 Z " fill="#243C49" transform="translate(319,363)"/>
<path d="M0 0 C1.5625 1.25 1.5625 1.25 3 3 C2.78444567 6.34109211 1.19314117 8.54368189 -1 11 C-1.66 11 -2.32 11 -3 11 C-2.11223998 7.30099992 -1.05418136 3.65449539 0 0 Z " fill="#253C4A" transform="translate(320,159)"/>
<path d="M0 0 C0.66 0.33 1.32 0.66 2 1 C2.75 4.4375 2.75 4.4375 3 8 C2.34 8.66 1.68 9.32 1 10 C0.34 8.68 -0.32 7.36 -1 6 C-2.32 6.33 -3.64 6.66 -5 7 C-5 6.34 -5 5.68 -5 5 C-3.35 4.34 -1.7 3.68 0 3 C0 2.01 0 1.02 0 0 Z " fill="#204555" transform="translate(289,354)"/>
<path d="M0 0 C1.64826111 2.96687001 2.44271087 5.65626525 3 9 C1.68 8.67 0.36 8.34 -1 8 C-1.33 5.69 -1.66 3.38 -2 1 C-1.34 0.67 -0.68 0.34 0 0 Z " fill="#223C4A" transform="translate(231,357)"/>
<path d="M0 0 C0.66 0.33 1.32 0.66 2 1 C2.1875 3.375 2.1875 3.375 2 6 C-1.6441774 8.4294516 -3.71241272 8.16179575 -8 8 C-7.401875 7.731875 -6.80375 7.46375 -6.1875 7.1875 C-2.68911463 5.28837651 -1.26654546 3.79963639 0 0 Z " fill="#2E414D" transform="translate(248,316)"/>
<path d="M0 0 C0.33 0 0.66 0 1 0 C1.125 5.75 1.125 5.75 0 8 C-3.0625 8.625 -3.0625 8.625 -6 9 C-6.33 7.68 -6.66 6.36 -7 5 C-3.535 4.505 -3.535 4.505 0 4 C0 2.68 0 1.36 0 0 Z " fill="#152C37" transform="translate(158,354)"/>
<path d="M0 0 C1.32 0.66 2.64 1.32 4 2 C3.01 2 2.02 2 1 2 C1.56371414 5.26954202 2.49962266 6.82575883 5 9 C3.68 9 2.36 9 1 9 C1 9.66 1 10.32 1 11 C0.01 11.33 -0.98 11.66 -2 12 C-1.34 8.04 -0.68 4.08 0 0 Z " fill="#192C40" transform="translate(333,348)"/>
<path d="M0 0 C-0.61875 0.598125 -1.2375 1.19625 -1.875 1.8125 C-4.13676954 4.00811144 -4.13676954 4.00811144 -6 7 C-6.99 6.67 -7.98 6.34 -9 6 C-8.8125 3.625 -8.8125 3.625 -8 1 C-4.72494404 -0.89608503 -3.64512471 -1.21504157 0 0 Z " fill="#20384C" transform="translate(316,126)"/>
<path d="M0 0 C2.97 0.495 2.97 0.495 6 1 C6.33 2.65 6.66 4.3 7 6 C5.35 6 3.7 6 2 6 C1.34 4.02 0.68 2.04 0 0 Z " fill="#1F3445" transform="translate(184,360)"/>
<path d="M0 0 C0.33 0.66 0.66 1.32 1 2 C-0.75 4 -0.75 4 -3 6 C-4.32 6 -5.64 6 -7 6 C-6.67 5.01 -6.34 4.02 -6 3 C-5.34 3 -4.68 3 -4 3 C-4 2.34 -4 1.68 -4 1 C-2.68 0.67 -1.36 0.34 0 0 Z " fill="#1B4F5D" transform="translate(338,356)"/>
<path d="M0 0 C0.99 0 1.98 0 3 0 C3.33 0.99 3.66 1.98 4 3 C4.66 3.33 5.32 3.66 6 4 C6 4.66 6 5.32 6 6 C5.21625 5.814375 4.4325 5.62875 3.625 5.4375 C1.02910225 4.74037734 1.02910225 4.74037734 -1 6 C-0.67 4.02 -0.34 2.04 0 0 Z " fill="#294459" transform="translate(341,355)"/>
<path d="M0 0 C0.99 0.66 1.98 1.32 3 2 C2.67 3.32 2.34 4.64 2 6 C0.0625 5.6875 0.0625 5.6875 -2 5 C-2.33 4.01 -2.66 3.02 -3 2 C-2.01 1.34 -1.02 0.68 0 0 Z " fill="#23323E" transform="translate(242,346)"/>
<path d="M0 0 C0.99 0.33 1.98 0.66 3 1 C2.67 2.65 2.34 4.3 2 6 C0.68 6.33 -0.64 6.66 -2 7 C-1.34 4.69 -0.68 2.38 0 0 Z " fill="#2F424B" transform="translate(324,317)"/>
<path d="M0 0 C-0.33 0.66 -0.66 1.32 -1 2 C-1.66 2 -2.32 2 -3 2 C-3 2.66 -3 3.32 -3 4 C-3.66 4 -4.32 4 -5 4 C-5.33 4.99 -5.66 5.98 -6 7 C-6.66 6.34 -7.32 5.68 -8 5 C-7.34 5 -6.68 5 -6 5 C-6 3.35 -6 1.7 -6 0 C-3 -1 -3 -1 0 0 Z " fill="#20364F" transform="translate(258,191)"/>
<path d="M0 0 C2.4375 0.6875 2.4375 0.6875 5 2 C5.8125 4.625 5.8125 4.625 6 7 C5.01 7.495 5.01 7.495 4 8 C4 6.35 4 4.7 4 3 C2.35 3.66 0.7 4.32 -1 5 C-1.33 4.34 -1.66 3.68 -2 3 C-1.34 3 -0.68 3 0 3 C0 2.01 0 1.02 0 0 Z " fill="#203442" transform="translate(185,351)"/>
<path d="M0 0 C0.33 0.66 0.66 1.32 1 2 C1.99 1.67 2.98 1.34 4 1 C4 2.32 4 3.64 4 5 C2.35 4.67 0.7 4.34 -1 4 C-1.33 3.01 -1.66 2.02 -2 1 C-1.34 0.67 -0.68 0.34 0 0 Z " fill="#1F2E46" transform="translate(253,361)"/>
<path d="M0 0 C0.66 0.33 1.32 0.66 2 1 C2.40729228 3.32156597 2.74438677 5.6568787 3 8 C2.34 7.67 1.68 7.34 1 7 C0.34 7.99 -0.32 8.98 -1 10 C-1.125 3.375 -1.125 3.375 0 0 Z " fill="#213544" transform="translate(206,354)"/>
<path d="M0 0 C0.66 0.33 1.32 0.66 2 1 C1.125 5.875 1.125 5.875 0 7 C-1.99958364 7.04080783 -4.00045254 7.04254356 -6 7 C-6 6.67 -6 6.34 -6 6 C-4.35 6 -2.7 6 -1 6 C-0.67 4.02 -0.34 2.04 0 0 Z " fill="#2F3E49" transform="translate(293,317)"/>
<path d="M0 0 C0.66 0.33 1.32 0.66 2 1 C2 2.32 2 3.64 2 5 C2.66 5.33 3.32 5.66 4 6 C4 6.66 4 7.32 4 8 C0.125 7.125 0.125 7.125 -1 6 C-1.125 3.5 -1.125 3.5 -1 1 C-0.67 0.67 -0.34 0.34 0 0 Z " fill="#2A424A" transform="translate(181,294)"/>
<path d="M0 0 C0.66 0.33 1.32 0.66 2 1 C2 2.98 2 4.96 2 7 C0.35 7.33 -1.3 7.66 -3 8 C-2.67 7.01 -2.34 6.02 -2 5 C-1.34 5 -0.68 5 0 5 C0 3.35 0 1.7 0 0 Z " fill="#2A4150" transform="translate(202,352)"/>
<path d="M0 0 C0.33 0.99 0.66 1.98 1 3 C-0.1875 4.5 -0.1875 4.5 -2 6 C-4.6875 6.1875 -4.6875 6.1875 -7 6 C-5.68 5.34 -4.36 4.68 -3 4 C-3 3.34 -3 2.68 -3 2 C-2.01 2 -1.02 2 0 2 C0 1.34 0 0.68 0 0 Z " fill="#2F424D" transform="translate(228,295)"/>
<path d="M0 0 C0.66 0.66 1.32 1.32 2 2 C1.34 3.32 0.68 4.64 0 6 C-0.99 5.67 -1.98 5.34 -3 5 C-3.99 5 -4.98 5 -6 5 C-3.9927092 1.9890638 -3.16115776 1.36983503 0 0 Z " fill="#234C5C" transform="translate(313,192)"/>
<path d="M0 0 C-0.33 1.65 -0.66 3.3 -1 5 C-2.32 4.67 -3.64 4.34 -5 4 C-5 3.34 -5 2.68 -5 2 C-2 0 -2 0 0 0 Z " fill="#273A47" transform="translate(284,366)"/>
<path d="M0 0 C-0.33 1.65 -0.66 3.3 -1 5 C-2.32 4.67 -3.64 4.34 -5 4 C-5 3.01 -5 2.02 -5 1 C-3 0 -3 0 0 0 Z " fill="#214457" transform="translate(256,358)"/>
<path d="M0 0 C2.475 0.99 2.475 0.99 5 2 C4.34 3.32 3.68 4.64 3 6 C2.01 6 1.02 6 0 6 C-1.125 2.25 -1.125 2.25 0 0 Z " fill="#102944" transform="translate(262,356)"/>
<path d="M0 0 C2 1 4 2 6 3 C5.34 3.66 4.68 4.32 4 5 C2.68 5 1.36 5 0 5 C0 3.35 0 1.7 0 0 Z " fill="#1F4954" transform="translate(245,350)"/>
<path d="M0 0 C0.33 0 0.66 0 1 0 C1 2.97 1 5.94 1 9 C0.67 9 0.34 9 0 9 C0 6.03 0 3.06 0 0 Z " fill="#000000" transform="translate(294,284)"/>
<path d="M0 0 C0.66 0.33 1.32 0.66 2 1 C2 1.66 2 2.32 2 3 C1.01 2.67 0.02 2.34 -1 2 C-0.67 1.34 -0.34 0.68 0 0 Z " fill="#000000" transform="translate(237,348)"/>
<path d="M0 0 C0.66 0 1.32 0 2 0 C1.67 0.99 1.34 1.98 1 3 C0.67 2.01 0.34 1.02 0 0 Z " fill="#000000" transform="translate(330,350)"/>
<path d="M0 0 C2 1 2 1 2 1 Z " fill="#000000" transform="translate(223,359)"/>
<path d="" fill="#000080" transform="translate(0,0)"/>
<path d="" fill="#000000" transform="translate(0,0)"/>
<path d="" fill="#000000" transform="translate(0,0)"/>
<path d="" fill="#000000" transform="translate(0,0)"/>
<path d="" fill="#000000" transform="translate(0,0)"/>
<path d="" fill="#000000" transform="translate(0,0)"/>
<path d="" fill="#000000" transform="translate(0,0)"/>
</svg>
